<?xml version="1.0" encoding="UTF-8" standalone="no"?><svg xmlns="http://www.w3.org/2000/svg" xmlns:xlink="http://www.w3.org/1999/xlink" contentScriptType="application/ecmascript" contentStyleType="text/css" height="260px" preserveAspectRatio="none" style="width:494px;height:260px;" version="1.1" viewBox="0 0 494 260" width="494px" zoomAndPan="magnify"><defs><filter height="300%" id="fqfide9or3fes" width="300%" x="-1" y="-1"><feGaussianBlur result="blurOut" stdDeviation="2.0"/><feColorMatrix in="blurOut" result="blurOut2" type="matrix" values="0 0 0 0 0 0 0 0 0 0 0 0 0 0 0 0 0 0 .4 0"/><feOffset dx="4.0" dy="4.0" in="blurOut2" result="blurOut3"/><feBlend in="SourceGraphic" in2="blurOut3" mode="normal"/></filter></defs><g><!--MD5=[979da56a7f83e2393dc758167ae295d0]
cluster Server--><polygon fill="#FFFFFF" filter="url(#fqfide9or3fes)" points="168.5,134,227.5,134,234.5,156.2969,304.5,156.2969,304.5,248,168.5,248,168.5,134" style="stroke: #000000; stroke-width: 1.5;"/><line style="stroke: #000000; stroke-width: 1.5;" x1="168.5" x2="234.5" y1="156.2969" y2="156.2969"/><text fill="#000000" font-family="sans-serif" font-size="14" font-weight="bold" lengthAdjust="spacingAndGlyphs" textLength="53" x="172.5" y="148.9951">Server</text><!--MD5=[406b65fecc21e832f7a9b6ebadc6dce1]
cluster Client--><polygon fill="#FFFFFF" filter="url(#fqfide9or3fes)" points="328.5,134,379.5,134,386.5,156.2969,472.5,156.2969,472.5,248,328.5,248,328.5,134" style="stroke: #000000; stroke-width: 1.5;"/><line style="stroke: #000000; stroke-width: 1.5;" x1="328.5" x2="386.5" y1="156.2969" y2="156.2969"/><text fill="#000000" font-family="sans-serif" font-size="14" font-weight="bold" lengthAdjust="spacingAndGlyphs" textLength="45" x="332.5" y="148.9951">Client</text><!--MD5=[034cc5895b2ef7c10223406b60669bb6]
entity Producer--><rect fill="#FEFECE" filter="url(#fqfide9or3fes)" height="62.5938" style="stroke: #A80036; stroke-width: 1.5;" width="103" x="185" y="169"/><rect fill="#FEFECE" height="10" style="stroke: #A80036; stroke-width: 1.5;" width="15" x="268" y="174"/><rect fill="#FEFECE" height="2" style="stroke: #A80036; stroke-width: 1.5;" width="4" x="266" y="176"/><rect fill="#FEFECE" height="2" style="stroke: #A80036; stroke-width: 1.5;" width="4" x="266" y="180"/><text fill="#000000" font-family="sans-serif" font-size="14" lengthAdjust="spacingAndGlyphs" textLength="21" x="200" y="201.9951">API</text><text fill="#000000" font-family="sans-serif" font-size="14" lengthAdjust="spacingAndGlyphs" textLength="63" x="200" y="218.292">Producer</text><!--MD5=[4d65782647d64e21a92b473b2db819be]
entity Consumer--><rect fill="#FEFECE" filter="url(#fqfide9or3fes)" height="62.5938" style="stroke: #A80036; stroke-width: 1.5;" width="112" x="344.5" y="169"/><rect fill="#FEFECE" height="10" style="stroke: #A80036; stroke-width: 1.5;" width="15" x="436.5" y="174"/><rect fill="#FEFECE" height="2" style="stroke: #A80036; stroke-width: 1.5;" width="4" x="434.5" y="176"/><rect fill="#FEFECE" height="2" style="stroke: #A80036; stroke-width: 1.5;" width="4" x="434.5" y="180"/><text fill="#000000" font-family="sans-serif" font-size="14" lengthAdjust="spacingAndGlyphs" textLength="21" x="359.5" y="201.9951">API</text><text fill="#000000" font-family="sans-serif" font-size="14" lengthAdjust="spacingAndGlyphs" textLength="72" x="359.5" y="218.292">Consumer</text><!--MD5=[e9133d319b00836ead36bafe5be9939b]
entity Protocol--><rect fill="#FEFECE" filter="url(#fqfide9or3fes)" height="62.5938" style="stroke: #A80036; stroke-width: 1.5;" width="144" x="250.5" y="8"/><rect fill="#FEFECE" height="10" style="stroke: #A80036; stroke-width: 1.5;" width="15" x="374.5" y="13"/><rect fill="#FEFECE" height="2" style="stroke: #A80036; stroke-width: 1.5;" width="4" x="372.5" y="15"/><rect fill="#FEFECE" height="2" style="stroke: #A80036; stroke-width: 1.5;" width="4" x="372.5" y="19"/><text fill="#000000" font-family="sans-serif" font-size="14" lengthAdjust="spacingAndGlyphs" textLength="57" x="265.5" y="40.9951">Protocol</text><text fill="#000000" font-family="sans-serif" font-size="14" lengthAdjust="spacingAndGlyphs" textLength="104" x="265.5" y="57.292">(+ data format)</text><path d="M6,12 L6,67.3984 A0,0 0 0 0 6,67.3984 L215,67.3984 A0,0 0 0 0 215,67.3984 L215,43.5 L250.447,39.5 L215,35.5 L215,22 L205,12 L6,12 A0,0 0 0 0 6,12 " fill="#FBFB77" filter="url(#fqfide9or3fes)" style="stroke: #A80036; stroke-width: 1.0;"/><path d="M205,12 L205,22 L215,22 L205,12 " fill="#FBFB77" style="stroke: #A80036; stroke-width: 1.0;"/><text fill="#000000" font-family="sans-serif" font-size="13" lengthAdjust="spacingAndGlyphs" textLength="129" x="12" y="29.0669">Data format can be:</text><ellipse cx="17.5" cy="39.7656" fill="#000000" rx="2.5" ry="2.5" style="stroke: #000000; stroke-width: 0.0;"/><text fill="#000000" font-family="sans-serif" font-size="13" lengthAdjust="spacingAndGlyphs" textLength="128" x="23" y="44.1997">required by protocol</text><ellipse cx="17.5" cy="54.8984" fill="#000000" rx="2.5" ry="2.5" style="stroke: #000000; stroke-width: 0.0;"/><text fill="#000000" font-family="sans-serif" font-size="13" lengthAdjust="spacingAndGlyphs" textLength="177" x="23" y="59.3325">negociated in the exchange</text><!--MD5=[1cb34a357ce58bfd00e8ae7d36e0dee9]
link Consumer to Protocol--><path d="M389.586,168.709 C382.204,148.969 371.773,123.014 360.5,101 C356.207,92.616 351.117,83.883 346.081,75.745 " fill="none" id="Consumer-&gt;Protocol" style="stroke: #A80036; stroke-width: 1.0;"/><polygon fill="#A80036" points="343.294,71.292,344.6758,81.0434,345.9457,75.5309,351.4582,76.8008,343.294,71.292" style="stroke: #A80036; stroke-width: 1.0;"/><text fill="#000000" font-family="sans-serif" font-size="13" lengthAdjust="spacingAndGlyphs" textLength="8" x="368.5" y="114.0669">1</text><!--MD5=[252c9397b76990c703888361483a2daf]
link Protocol to Consumer--><path d="M330.954,71.356 C335.398,85.841 341.402,103.146 348.5,118 C356.108,133.92 366.236,150.508 375.532,164.5313 " fill="none" id="Protocol-&gt;Consumer" style="stroke: #A80036; stroke-width: 1.0;"/><polygon fill="#A80036" points="378.386,168.7974,376.7065,159.0928,375.6059,164.6415,370.0572,163.5409,378.386,168.7974" style="stroke: #A80036; stroke-width: 1.0;"/><text fill="#000000" font-family="sans-serif" font-size="13" lengthAdjust="spacingAndGlyphs" textLength="8" x="349.5" y="114.0669">4</text><!--MD5=[e7d207f32dfe00241bcd3f2f87e0b74b]
link Protocol to Producer--><path d="M269.488,71.026 C259.218,79.413 249.726,89.441 243.5,101 C233.275,119.982 231.407,144.085 232.153,163.697 " fill="none" id="Protocol-&gt;Producer" style="stroke: #A80036; stroke-width: 1.0;"/><polygon fill="#A80036" points="232.411,168.84,235.9534,159.6503,232.1596,163.8463,227.9635,160.0525,232.411,168.84" style="stroke: #A80036; stroke-width: 1.0;"/><text fill="#000000" font-family="sans-serif" font-size="13" lengthAdjust="spacingAndGlyphs" textLength="8" x="244.5" y="114.0669">2</text><!--MD5=[2c00b08e7d6203d78242b57d68d64316]
link Producer to Protocol--><path d="M253.031,168.9373 C267.411,142.35 288.256,103.811 303.357,75.891 " fill="none" id="Producer-&gt;Protocol" style="stroke: #A80036; stroke-width: 1.0;"/><polygon fill="#A80036" points="305.918,71.157,298.1185,77.171,303.5397,75.5551,305.1555,80.9763,305.918,71.157" style="stroke: #A80036; stroke-width: 1.0;"/><text fill="#000000" font-family="sans-serif" font-size="13" lengthAdjust="spacingAndGlyphs" textLength="8" x="290.5" y="114.0669">3</text><!--MD5=[bbbf5d7d9d222c8996ad69ebf7605664]
@startuml
skinparam componentStyle uml2

package "Server" {
    component [API\nProducer] as Producer
}

[Protocol \n(+ data format)] as Protocol

package "Client" {
    component [API\nConsumer] as Consumer
}


Consumer - -> Protocol: 1
Protocol - -> Producer: 2
Producer - -> Protocol: 3
Protocol - -> Consumer: 4


note left of Protocol
    Data format can be:
    * required by protocol
    * negociated in the exchange
end note
@enduml

PlantUML version 1.2020.01beta5(Unknown compile time)
(GPL source distribution)
Java Runtime: Java(TM) SE Runtime Environment
JVM: Java HotSpot(TM) 64-Bit Server VM
Java Version: 1.7.0_25-b15
Operating System: Linux
Default Encoding: UTF-8
Language: en
Country: US
--></g></svg>